<svg width="388" height="132" viewBox="0 0 388 132" fill="none" xmlns="http://www.w3.org/2000/svg">
<path d="M24.4181 94.597L13.4749 121.302L2.61331 94.597H0V123.18H1.55165V96.2711L12.5766 123.18H14.3732L25.4798 96.2711V123.18H27.0723V94.597H24.4181Z" fill="#514C4C"/>
<path d="M42.7997 123.548C48.598 123.548 52.518 119.301 52.518 112.972C52.518 106.643 48.598 102.396 42.7997 102.396C36.9606 102.396 33.0406 106.643 33.0406 112.972C33.0406 119.301 36.9606 123.548 42.7997 123.548ZM42.7997 122.037C37.9406 122.037 34.7148 118.403 34.7148 112.972C34.7148 107.541 37.9406 103.907 42.7997 103.907C47.618 103.907 50.8438 107.541 50.8438 112.972C50.8438 118.403 47.618 122.037 42.7997 122.037Z" fill="#514C4C"/>
<path d="M66.4321 104.193V102.764H60.593V97.4961H59.0414V102.764H55.4481V104.193H59.0414V118.443C59.0414 120.322 59.4089 123.507 63.2472 123.507C64.3497 123.507 65.3296 123.221 65.9013 122.853V121.302C65.2071 121.751 64.3497 121.996 63.4513 121.996C61.0013 121.996 60.593 120.24 60.593 118.443V104.193H66.4321Z" fill="#514C4C"/>
<path d="M72.2894 98.9253C73.1061 98.9253 73.7186 98.3128 73.7186 97.4961C73.7186 96.6795 73.1061 96.067 72.2894 96.067C71.5136 96.067 70.9011 96.6795 70.9011 97.4961C70.9011 98.3128 71.5136 98.9253 72.2894 98.9253ZM71.5136 123.18H73.0653V102.764H71.5136V123.18Z" fill="#514C4C"/>
<path d="M87.8596 123.548C93.6579 123.548 97.5778 119.301 97.5778 112.972C97.5778 106.643 93.6579 102.396 87.8596 102.396C82.0205 102.396 78.1005 106.643 78.1005 112.972C78.1005 119.301 82.0205 123.548 87.8596 123.548ZM87.8596 122.037C83.0004 122.037 79.7746 118.403 79.7746 112.972C79.7746 107.541 83.0004 103.907 87.8596 103.907C92.6779 103.907 95.9037 107.541 95.9037 112.972C95.9037 118.403 92.6779 122.037 87.8596 122.037Z" fill="#514C4C"/>
<path d="M112.009 102.396C108.253 102.396 105.272 104.438 103.925 107.949V102.764H102.373V123.18H103.925V113.625C103.925 107.664 107.191 103.948 111.764 103.948C117.154 103.948 117.195 109.215 117.195 111.257V123.18H118.747V111.094C118.747 108.97 118.747 102.396 112.009 102.396Z" fill="#514C4C"/>
<path d="M151.479 94.597V107.541C150.05 104.356 147.192 102.396 143.476 102.396C137.964 102.396 134.166 106.643 134.166 112.972C134.166 119.423 138.045 123.548 143.435 123.548C147.192 123.548 150.009 121.588 151.479 118.362V123.18H153.031V94.597H151.479ZM143.639 122.037C138.944 122.037 135.84 118.403 135.84 112.972C135.84 107.541 138.944 103.907 143.639 103.907C148.417 103.907 151.602 107.541 151.602 112.972C151.602 118.403 148.417 122.037 143.639 122.037Z" fill="#514C4C"/>
<path d="M174.84 117.218C173.574 120.24 170.757 122.037 167.449 122.037C163.08 122.037 159.977 118.974 159.528 114.156H175.82C177.862 108.072 174.309 102.396 167.531 102.396C161.773 102.396 157.813 106.561 157.813 112.931C157.813 119.342 161.773 123.548 167.408 123.548C171.737 123.548 175.167 121.098 176.596 117.218H174.84ZM167.531 103.907C172.757 103.907 175.575 107.949 174.595 112.727H159.487C159.568 107.378 162.753 103.907 167.531 103.907Z" fill="#514C4C"/>
<path d="M189.125 123.548C193.821 123.548 197.129 121.302 197.129 117.668C197.129 110.114 182.756 114.197 182.756 108.113C182.756 105.581 185.165 103.825 188.635 103.825C192.923 103.825 195.536 106.398 194.801 109.95H196.394C197.21 105.622 194.066 102.396 188.717 102.396C184.43 102.396 181.122 104.519 181.122 108.154C181.122 115.708 195.495 111.584 195.495 117.708C195.495 120.24 193.045 122.118 189.125 122.118C184.43 122.118 181.776 119.423 182.143 115.259H180.551C180.142 120.281 183.409 123.548 189.125 123.548Z" fill="#514C4C"/>
<path d="M203.162 98.9253C203.979 98.9253 204.592 98.3128 204.592 97.4961C204.592 96.6795 203.979 96.067 203.162 96.067C202.387 96.067 201.774 96.6795 201.774 97.4961C201.774 98.3128 202.387 98.9253 203.162 98.9253ZM202.387 123.18H203.938V102.764H202.387V123.18Z" fill="#514C4C"/>
<path d="M218.733 119.219C223.633 117.218 226.613 113.829 226.613 109.787C226.613 108.439 226.287 107.214 225.674 106.153C227.348 105.295 227.92 102.6 226.981 100.273H225.429C226.328 101.906 226.287 104.642 224.817 105.05C223.347 103.417 220.978 102.437 217.998 102.437C212.812 102.437 209.382 105.459 209.382 109.828C209.382 114.238 212.853 117.137 217.548 117.137C219.304 117.137 220.897 116.728 222.163 115.993C219.753 117.872 216.242 119.342 212.118 120.036V121.751C213.914 121.179 216.201 120.73 218.447 120.73C222.816 120.73 225.756 122.568 225.756 125.385C225.756 128.203 222.898 130.203 218.692 130.203C214.159 130.203 211.097 127.917 210.811 124.446H209.096C209.627 128.856 213.343 131.714 218.692 131.714C223.837 131.714 227.43 129.101 227.43 125.385C227.43 121.465 223.388 119.26 218.733 119.219ZM211.015 109.828C211.015 106.316 213.792 103.907 217.998 103.907C222.285 103.907 224.98 106.398 224.98 109.828C224.98 113.339 222.203 115.708 217.998 115.708C213.792 115.708 211.015 113.339 211.015 109.828Z" fill="#514C4C"/>
<path d="M242.244 102.396C238.488 102.396 235.507 104.438 234.16 107.949V102.764H232.608V123.18H234.16V113.625C234.16 107.664 237.426 103.948 241.999 103.948C247.389 103.948 247.43 109.215 247.43 111.257V123.18H248.982V111.094C248.982 108.97 248.982 102.396 242.244 102.396Z" fill="#514C4C"/>
<path d="M276.978 99.7828C277.794 96.6386 276.324 94.2295 273.262 94.2295C270.281 94.2295 268.525 96.4345 268.525 100.028V102.764H264.034V104.193H268.525V123.18H270.077V104.193H276.814V102.764H270.077V100.028C270.077 97.3328 271.139 95.7403 273.139 95.7403C275.099 95.7403 275.998 97.292 275.426 99.7828H276.978Z" fill="#514C4C"/>
<path d="M295.943 117.218C294.678 120.24 291.86 122.037 288.553 122.037C284.183 122.037 281.08 118.974 280.631 114.156H296.923C298.965 108.072 295.413 102.396 288.634 102.396C282.877 102.396 278.916 106.561 278.916 112.931C278.916 119.342 282.877 123.548 288.512 123.548C292.84 123.548 296.27 121.098 297.699 117.218H295.943ZM288.634 103.907C293.861 103.907 296.678 107.949 295.698 112.727H280.59C280.672 107.378 283.857 103.907 288.634 103.907Z" fill="#514C4C"/>
<path d="M310.229 123.548C314.925 123.548 318.232 121.302 318.232 117.668C318.232 110.114 303.859 114.197 303.859 108.113C303.859 105.581 306.268 103.825 309.739 103.825C314.026 103.825 316.64 106.398 315.905 109.95H317.497C318.314 105.622 315.17 102.396 309.821 102.396C305.533 102.396 302.226 104.519 302.226 108.154C302.226 115.708 316.599 111.584 316.599 117.708C316.599 120.24 314.149 122.118 310.229 122.118C305.533 122.118 302.879 119.423 303.246 115.259H301.654C301.246 120.281 304.512 123.548 310.229 123.548Z" fill="#514C4C"/>
<path d="M332.565 104.193V102.764H326.725V97.4961H325.174V102.764H321.58V104.193H325.174V118.443C325.174 120.322 325.541 123.507 329.38 123.507C330.482 123.507 331.462 123.221 332.034 122.853V121.302C331.34 121.751 330.482 121.996 329.584 121.996C327.134 121.996 326.725 120.24 326.725 118.443V104.193H332.565Z" fill="#514C4C"/>
<path d="M338.422 98.9253C339.239 98.9253 339.851 98.3128 339.851 97.4961C339.851 96.6795 339.239 96.067 338.422 96.067C337.646 96.067 337.034 96.6795 337.034 97.4961C337.034 98.3128 337.646 98.9253 338.422 98.9253ZM337.646 123.18H339.198V102.764H337.646V123.18Z" fill="#514C4C"/>
<path d="M359.341 102.764L351.869 121.547L344.519 102.764H342.804L350.889 123.18H352.849L361.015 102.764H359.341Z" fill="#514C4C"/>
<path d="M372.159 102.396C366.973 102.396 363.625 105.581 364.646 109.991H366.32C365.422 106.112 368.117 103.907 372.078 103.907C377.304 103.907 378.488 107.704 378.488 111.829V112.074C376.61 111.339 374.283 110.93 372.078 110.93C366.728 110.93 363.053 113.544 363.053 117.708C363.053 121.383 365.953 123.548 370.158 123.548C374.242 123.548 377.059 121.465 378.488 118.403V123.18H380.04V111.869C380.04 106.765 378.243 102.396 372.159 102.396ZM370.281 122.037C366.973 122.037 364.728 120.444 364.728 117.668C364.728 114.442 367.708 112.441 372.2 112.441C374.364 112.441 376.692 112.931 378.488 113.666C378.407 118.362 375.344 122.037 370.281 122.037Z" fill="#514C4C"/>
<path d="M386.016 123.18H387.567V94.597H386.016V123.18Z" fill="#514C4C"/>
<path fill-rule="evenodd" clip-rule="evenodd" d="M112.641 47.6927C116.358 42.1074 117.262 36.4311 115.445 31.723C113.628 27.0149 109.145 23.4174 102.64 21.7764C96.1478 20.1385 87.9944 20.5841 79.8123 23.7416C71.6302 26.899 65.2911 32.046 61.5817 37.6208C57.8654 43.2061 56.9612 48.8825 58.7781 53.5905C60.5949 58.2986 65.0777 61.8961 71.5827 63.5371C78.0754 65.175 86.2287 64.7294 94.4108 61.5719C102.593 58.4145 108.932 53.2675 112.641 47.6927ZM95.8809 65.3814C113.633 58.531 124.098 42.8034 119.255 30.2529C114.411 17.7024 96.0943 13.0817 78.3422 19.9321C60.5901 26.7826 50.1254 42.5101 54.9686 55.0606C59.8117 67.6111 78.1288 72.2319 95.8809 65.3814Z" fill="#514C4C"/>
<path fill-rule="evenodd" clip-rule="evenodd" d="M80.5296 73.1094C99.419 77.3949 117.254 66.8248 120.975 50.4217C124.697 34.0187 113.169 16.7872 94.2797 12.5017C75.3903 8.21627 57.5554 18.7864 53.834 35.1894C50.1126 51.5924 61.6402 68.824 80.5296 73.1094ZM79.6261 77.0915C100.366 81.7968 120.661 70.2608 124.957 51.3252C129.253 32.3896 115.923 13.2248 95.1831 8.5196C74.4433 3.81436 54.1478 15.3503 49.8519 34.286C45.556 53.2216 58.8864 72.3863 79.6261 77.0915Z" fill="#514C4C"/>
<path d="M156.111 29.2575C151.211 29.2575 147.455 32.1975 145.168 37.2608V30.3192H137.573V71.1522H145.168V51.2257C145.168 42.2424 148.435 36.2808 153.253 36.2808C156.193 36.2808 158.071 38.4858 158.071 41.8341C158.071 43.5491 157.581 45.4274 156.356 47.3874H164.36C165.34 45.2641 166.075 42.7324 166.075 40.1191C166.075 33.9942 162.236 29.2575 156.111 29.2575Z" fill="#514C4C"/>
<path d="M194.784 29.2575C188.578 29.2575 183.759 32.0342 180.738 36.8525V13.986H173.143V71.1522H180.738V64.6189C183.759 69.4372 188.578 72.2139 194.784 72.2139C205.564 72.2139 213.322 63.6389 213.322 50.7357C213.322 37.9141 205.646 29.2575 194.784 29.2575ZM192.906 65.4356C185.474 65.4356 180.493 59.474 180.493 50.7357C180.493 41.9974 185.474 36.0358 192.987 36.0358C200.337 36.0358 205.319 41.8341 205.319 50.7357C205.319 59.474 200.419 65.4356 192.906 65.4356Z" fill="#514C4C"/>
<path d="M225.559 23.8676C228.499 23.8676 230.786 21.4992 230.786 18.5593C230.786 15.5376 228.499 13.251 225.559 13.251C222.538 13.251 220.251 15.5376 220.251 18.5593C220.251 21.4992 222.538 23.8676 225.559 23.8676ZM221.721 71.1522H229.316V30.3192H221.721V71.1522Z" fill="#514C4C"/>
<path d="M262.767 37.0975V30.3192H251.252V19.6209H243.657V30.3192H236.144V37.0975H243.657V58.9023C243.657 62.6589 243.902 72.2139 255.417 72.2139C257.949 72.2139 260.236 71.7239 261.951 71.0705V64.2106C260.399 64.9456 258.766 65.4356 256.806 65.4356C251.906 65.4356 251.252 62.5773 251.252 58.8206V37.0975H262.767Z" fill="#514C4C"/>
<path d="M286.219 29.2575C275.766 29.2575 268.171 35.5458 270.376 44.3657H278.297C277.072 38.9758 280.584 36.0358 286.137 36.0358C293.324 36.0358 295.692 41.0174 295.692 47.8774V48.0407C292.67 47.2241 289.24 46.8157 285.974 46.8157C274.622 46.8157 267.436 51.879 267.436 60.0456C267.436 67.3139 273.071 72.2139 281.482 72.2139C288.097 72.2139 293.16 69.1922 296.1 63.9656V71.1522H303.287V47.8774C303.287 36.6891 297.652 29.2575 286.219 29.2575ZM282.626 65.7622C278.052 65.7622 275.276 63.7206 275.276 60.1273C275.276 55.799 279.277 52.9407 286.545 52.9407C289.73 52.9407 293.16 53.4307 295.937 54.329C294.794 61.3523 289.322 65.7622 282.626 65.7622Z" fill="#514C4C"/>
<path d="M312.957 71.1522H320.552V13.986H312.957V71.1522Z" fill="#514C4C"/>
</svg>
