{
    "asset" : {
        "generator" : "Khronos glTF Blender I/O v1.6.16",
        "version" : "2.0"
    },
    "scene" : 0,
    "scenes" : [
        {
            "name" : "Scene",
            "nodes" : [
                0,
                1,
                2,
                3,
                4
            ]
        }
    ],
    "nodes" : [
        {
            "name" : "Light",
            "rotation" : [
                0.16907575726509094,
                0.7558803558349609,
                -0.27217137813568115,
                0.570947527885437
            ],
            "translation" : [
                4.076245307922363,
                5.903861999511719,
                -1.0054539442062378
            ]
        },
        {
            "name" : "Camera",
            "translation" : [
                1.038891315460205,
                4.958309173583984,
                -0.31420910358428955
            ]
        },
        {
            "mesh" : 0,
            "name" : "Curve.020",
            "scale" : [
                19.449588775634766,
                19.449588775634766,
                19.449588775634766
            ],
            "translation" : [
                0.4695669412612915,
                0,
                -0.4835587739944458
            ]
        },
        {
            "mesh" : 1,
            "name" : "Curve.021",
            "scale" : [
                19.449588775634766,
                19.449588775634766,
                19.449588775634766
            ],
            "translation" : [
                0.4711398184299469,
                0,
                -0.48275744915008545
            ]
        },
        {
            "mesh" : 2,
            "name" : "Curve.023",
            "scale" : [
                19.449588775634766,
                19.449588775634766,
                19.449588775634766
            ]
        }
    ],
    "animations" : [
        {
            "channels" : [
                {
                    "sampler" : 0,
                    "target" : {
                        "node" : 2,
                        "path" : "rotation"
                    }
                },
                {
                    "sampler" : 1,
                    "target" : {
                        "node" : 2,
                        "path" : "translation"
                    }
                },
                {
                    "sampler" : 2,
                    "target" : {
                        "node" : 2,
                        "path" : "scale"
                    }
                }
            ],
            "name" : "Curve.020Action",
            "samplers" : [
                {
                    "input" : 12,
                    "interpolation" : "LINEAR",
                    "output" : 13
                },
                {
                    "input" : 14,
                    "interpolation" : "LINEAR",
                    "output" : 15
                },
                {
                    "input" : 14,
                    "interpolation" : "LINEAR",
                    "output" : 16
                }
            ]
        },
        {
            "channels" : [
                {
                    "sampler" : 0,
                    "target" : {
                        "node" : 3,
                        "path" : "translation"
                    }
                },
                {
                    "sampler" : 1,
                    "target" : {
                        "node" : 3,
                        "path" : "rotation"
                    }
                },
                {
                    "sampler" : 2,
                    "target" : {
                        "node" : 3,
                        "path" : "scale"
                    }
                }
            ],
            "name" : "Curve.021Action",
            "samplers" : [
                {
                    "input" : 12,
                    "interpolation" : "LINEAR",
                    "output" : 17
                },
                {
                    "input" : 12,
                    "interpolation" : "LINEAR",
                    "output" : 18
                },
                {
                    "input" : 12,
                    "interpolation" : "LINEAR",
                    "output" : 19
                }
            ]
        }
    ],
    "materials" : [
        {
            "doubleSided" : true,
            "emissiveFactor" : [
                0.19307424128055573,
                0.19307424128055573,
                0.19307424128055573
            ],
            "name" : "NEW",
            "pbrMetallicRoughness" : {}
        }
    ],
    "meshes" : [
        {
            "name" : "Curve.020",
            "primitives" : [
                {
                    "attributes" : {
                        "POSITION" : 0,
                        "NORMAL" : 1,
                        "TEXCOORD_0" : 2
                    },
                    "indices" : 3,
                    "material" : 0
                }
            ]
        },
        {
            "name" : "Curve.021",
            "primitives" : [
                {
                    "attributes" : {
                        "POSITION" : 4,
                        "NORMAL" : 5,
                        "TEXCOORD_0" : 6
                    },
                    "indices" : 7,
                    "material" : 0
                }
            ]
        },
        {
            "name" : "Curve.023",
            "primitives" : [
                {
                    "attributes" : {
                        "POSITION" : 8,
                        "NORMAL" : 9,
                        "TEXCOORD_0" : 10
                    },
                    "indices" : 11,
                    "material" : 0
                }
            ]
        }
    ],
    "accessors" : [
        {
            "bufferView" : 0,
            "componentType" : 5126,
            "count" : 984,
            "max" : [
                0.009236256591975689,
                0.000699999975040555,
                0.0071717556565999985
            ],
            "min" : [
                -0.00923622865229845,
                -0.000699999975040555,
                -0.0071717435494065285
            ],
            "type" : "VEC3"
        },
        {
            "bufferView" : 1,
            "componentType" : 5126,
            "count" : 984,
            "type" : "VEC3"
        },
        {
            "bufferView" : 2,
            "componentType" : 5126,
            "count" : 984,
            "type" : "VEC2"
        },
        {
            "bufferView" : 3,
            "componentType" : 5123,
            "count" : 1728,
            "type" : "SCALAR"
        },
        {
            "bufferView" : 4,
            "componentType" : 5126,
            "count" : 664,
            "max" : [
                0.010608970187604427,
                0.000699999975040555,
                0.009788461029529572
            ],
            "min" : [
                -0.010608941316604614,
                -0.000699999975040555,
                -0.009788449853658676
            ],
            "type" : "VEC3"
        },
        {
            "bufferView" : 5,
            "componentType" : 5126,
            "count" : 664,
            "type" : "VEC3"
        },
        {
            "bufferView" : 6,
            "componentType" : 5126,
            "count" : 664,
            "type" : "VEC2"
        },
        {
            "bufferView" : 7,
            "componentType" : 5123,
            "count" : 1152,
            "type" : "SCALAR"
        },
        {
            "bufferView" : 8,
            "componentType" : 5126,
            "count" : 15575,
            "max" : [
                0.107413150370121,
                0.000699999975040555,
                -0.0001853853464126587
            ],
            "min" : [
                0,
                -0.000699999975040555,
                -0.03301011770963669
            ],
            "type" : "VEC3"
        },
        {
            "bufferView" : 9,
            "componentType" : 5126,
            "count" : 15575,
            "type" : "VEC3"
        },
        {
            "bufferView" : 10,
            "componentType" : 5126,
            "count" : 15575,
            "type" : "VEC2"
        },
        {
            "bufferView" : 11,
            "componentType" : 5123,
            "count" : 28884,
            "type" : "SCALAR"
        },
        {
            "bufferView" : 12,
            "componentType" : 5126,
            "count" : 80,
            "max" : [
                3.3333333333333335
            ],
            "min" : [
                0.041666666666666664
            ],
            "type" : "SCALAR"
        },
        {
            "bufferView" : 13,
            "componentType" : 5126,
            "count" : 80,
            "type" : "VEC4"
        },
        {
            "bufferView" : 14,
            "componentType" : 5126,
            "count" : 51,
            "max" : [
                3.3333333333333335
            ],
            "min" : [
                1.25
            ],
            "type" : "SCALAR"
        },
        {
            "bufferView" : 15,
            "componentType" : 5126,
            "count" : 51,
            "type" : "VEC3"
        },
        {
            "bufferView" : 16,
            "componentType" : 5126,
            "count" : 51,
            "type" : "VEC3"
        },
        {
            "bufferView" : 17,
            "componentType" : 5126,
            "count" : 80,
            "type" : "VEC3"
        },
        {
            "bufferView" : 18,
            "componentType" : 5126,
            "count" : 80,
            "type" : "VEC4"
        },
        {
            "bufferView" : 19,
            "componentType" : 5126,
            "count" : 80,
            "type" : "VEC3"
        }
    ],
    "bufferViews" : [
        {
            "buffer" : 0,
            "byteLength" : 11808,
            "byteOffset" : 0
        },
        {
            "buffer" : 0,
            "byteLength" : 11808,
            "byteOffset" : 11808
        },
        {
            "buffer" : 0,
            "byteLength" : 7872,
            "byteOffset" : 23616
        },
        {
            "buffer" : 0,
            "byteLength" : 3456,
            "byteOffset" : 31488
        },
        {
            "buffer" : 0,
            "byteLength" : 7968,
            "byteOffset" : 34944
        },
        {
            "buffer" : 0,
            "byteLength" : 7968,
            "byteOffset" : 42912
        },
        {
            "buffer" : 0,
            "byteLength" : 5312,
            "byteOffset" : 50880
        },
        {
            "buffer" : 0,
            "byteLength" : 2304,
            "byteOffset" : 56192
        },
        {
            "buffer" : 0,
            "byteLength" : 186900,
            "byteOffset" : 58496
        },
        {
            "buffer" : 0,
            "byteLength" : 186900,
            "byteOffset" : 245396
        },
        {
            "buffer" : 0,
            "byteLength" : 124600,
            "byteOffset" : 432296
        },
        {
            "buffer" : 0,
            "byteLength" : 57768,
            "byteOffset" : 556896
        },
        {
            "buffer" : 0,
            "byteLength" : 320,
            "byteOffset" : 614664
        },
        {
            "buffer" : 0,
            "byteLength" : 1280,
            "byteOffset" : 614984
        },
        {
            "buffer" : 0,
            "byteLength" : 204,
            "byteOffset" : 616264
        },
        {
            "buffer" : 0,
            "byteLength" : 612,
            "byteOffset" : 616468
        },
        {
            "buffer" : 0,
            "byteLength" : 612,
            "byteOffset" : 617080
        },
        {
            "buffer" : 0,
            "byteLength" : 960,
            "byteOffset" : 617692
        },
        {
            "buffer" : 0,
            "byteLength" : 1280,
            "byteOffset" : 618652
        },
        {
            "buffer" : 0,
            "byteLength" : 960,
            "byteOffset" : 619932
        }
    ],
    "buffers" : [
        {
            "byteLength" : 620892,
            "uri" : "data:application/octet-stream;base64,"
        }
    ]
}
